<?xml version="1.0" encoding="utf-8"?>
<!-- Generator: Adobe Illustrator 16.0.0, SVG Export Plug-In . SVG Version: 6.00 Build 0)  -->
<!DOCTYPE svg PUBLIC "-//W3C//DTD SVG 1.1//EN" "http://www.w3.org/Graphics/SVG/1.1/DTD/svg11.dtd">
<svg version="1.1" id="レイヤー_1" xmlns="http://www.w3.org/2000/svg" xmlns:xlink="http://www.w3.org/1999/xlink" x="0px"
	 y="0px" width="280.413px" height="142.396px" viewBox="0 0 280.413 142.396" enable-background="new 0 0 280.413 142.396"
	 xml:space="preserve">
<g>
	<path fill="#6A3906" d="M93.221,23.332c-0.657,1.15-1.561,1.725-3.943,1.725H57.484c3.04,15.609,11.748,33.437,36.147,45.677
		l-0.164,0.986c-2.958,0.246-4.929,1.314-5.669,4.354c-22.92-13.638-29.493-34.669-31.958-51.018h-1.643
		c-2.793,20.785-10.762,37.79-36.558,51.182l-1.15-1.396c21.853-13.884,29.329-30.068,31.958-49.785H17.393l-0.575-1.972h31.876
		c0.821-7.147,1.068-14.788,1.232-22.921l9.448,0.657c-0.164,1.232-0.739,1.89-3.615,2.218c-0.247,6.983-0.575,13.72-1.314,20.045
		h26.618l4.19-5.34L93.221,23.332z M46.886,53.481C58.388,57.918,61.92,63.915,61.92,67.694c0,2.383-1.314,3.861-2.958,3.861
		c-0.822,0-1.643-0.328-2.465-1.068c-0.986-5.34-5.915-12.322-10.269-16.266L46.886,53.481z"/>
	<path fill="#6A3906" d="M128.304,1.479l6.244,6.572c-0.657,0.74-1.807,0.904-3.615,0.904c-2.546,5.011-7.476,14.295-10.598,19.306
		c8.379,6.49,12.159,12.651,12.241,19.224c0,7.97-2.793,12.159-11.008,12.733c0-2.629-0.493-4.354-5.422-4.764V54.14h6.572
		c3.533,0,4.108-3.697,4.108-6.901c0-6.326-2.3-12.405-8.38-18.731c1.89-5.094,4.847-14.87,6.655-21.36h-11.666v67.283
		c0,0.411-1.725,1.89-4.19,1.89h-0.904V2.547l6.162,2.629h10.269L128.304,1.479z M182.197,36.394
		c-0.657,1.232-1.644,1.807-3.943,1.807h-28.672c-0.986,2.629-2.219,5.176-3.615,7.641h25.961l2.547-3.04l6.243,4.847
		c-0.492,0.657-1.479,0.986-3.039,1.232c-0.575,15.445-1.808,23.084-4.765,25.303c-1.89,1.479-3.943,2.054-7.23,2.054
		c0-2.793-0.821-3.861-6.49-4.519l0.083-1.396c2.054,0,6.243,0.164,7.804,0.164c1.232,0,1.809-0.082,2.465-0.657
		c1.562-1.479,2.547-8.462,3.122-22.017h-5.833c-3.368,11.337-9.447,20.867-18.812,28.343l-0.986-1.314
		c6.9-7.394,11.42-16.842,14.049-27.028h-5.751c-4.437,10.844-11.913,19.963-22.018,26.781l-0.985-1.396
		c7.804-6.736,13.884-15.855,17.416-25.385h-5.012c-4.107,6.408-9.529,11.83-16.512,16.348l-0.904-1.396
		c7.723-6.49,13.145-15.116,16.349-24.563H132.74l-0.493-1.972h39.187l3.697-4.847L182.197,36.394z M143.667,28.014v2.793
		c0,0.411-1.644,1.725-4.19,1.725h-0.739V2.465l5.915,2.546h21.689l2.464-3.04l6.326,4.847c-0.493,0.657-1.396,1.15-2.958,1.396
		v22.181c0,0.329-1.971,1.479-4.271,1.479h-0.904v-3.861H143.667z M166.998,6.983h-23.331v8.544h23.331V6.983z M143.667,26.042
		h23.331v-8.544h-23.331V26.042z"/>
	<path fill="#6A3906" d="M218.75,45.102h-0.082c-0.246,1.561-1.15,2.547-2.3,2.547c-0.657,0-1.314-0.247-1.972-0.904
		c-0.493-3.532-2.958-8.215-5.423-11.501v38.695c0,0.246-0.657,2.053-5.011,2.053v-37.79c-2.547,6.901-5.833,13.227-10.105,18.896
		l-1.314-1.068c5.341-9.858,8.544-22.346,10.352-34.504h-9.365l-0.575-1.972h11.009V0.082l8.544,0.739
		c-0.164,1.232-0.904,1.808-3.533,2.054v16.677h2.301l3.204-4.765l6.161,4.929c-0.739,1.232-1.561,1.808-3.779,1.808h-7.887v12.076
		c6.901,3.451,9.366,7.394,9.694,10.187h0.082V30.068l5.012,2.3h13.391l2.054-2.629l6.08,4.272
		c-0.411,0.493-1.479,1.068-2.629,1.232v13.802c0,0.165-1.479,1.643-4.848,1.643v-2.464h-14.459v1.643
		c0,0.082-0.821,1.561-4.601,1.561V45.102z M243.972,53.153c-0.247,0.903-1.232,1.15-3.04,1.15
		c-1.479,2.875-3.697,6.736-5.751,10.104c4.354-0.575,9.037-1.15,13.72-1.808l0.164,1.314c-6.654,2.055-16.02,4.766-29.164,8.216
		c-0.411,0.985-1.15,1.561-1.972,1.808l-3.861-7.148c3.861-0.328,10.598-1.067,18.648-2.053c1.232-4.272,2.794-9.777,3.697-13.803
		L243.972,53.153z M264.674,17.252l5.751,5.176c-0.657,1.232-1.561,1.726-3.697,1.726h-5.011v44.198c0,4.19-1.068,7.312-7.887,8.134
		c0-4.108-2.219-4.766-7.641-5.258V69.83h8.708c1.314,0,1.726-0.328,1.726-1.561V24.153h-10.104
		c-0.411,0.493-0.986,0.821-1.644,0.985c-0.575,0.165-1.232,0.165-1.808,0.165h-25.385l-0.575-1.972h11.173V13.145h-11.748
		l-0.493-1.972h12.241V0l8.626,0.739c-0.082,1.314-0.986,1.808-3.697,2.218v8.215h4.354l3.286-4.354l6.49,4.601
		c-0.739,1.232-1.644,1.725-3.779,1.725h-10.352v10.187h4.025l3.286-4.272l4.354,3.122h11.748V0.493l8.79,0.739
		c-0.164,1.232-0.575,1.89-3.696,2.3v18.484L264.674,17.252z M220.64,51.921c5.34,3.122,7.065,6.49,7.065,8.955
		c0,2.3-1.479,3.861-3.04,3.861c-0.739,0-1.643-0.411-2.3-1.396c0.246-3.369-1.068-8.134-2.711-10.927L220.64,51.921z M237.81,34.34
		h-14.459v11.913h14.459V34.34z M247.668,32.533c5.094,5.258,6.819,10.105,6.819,13.637c0,3.451-1.562,5.587-3.286,5.587
		c-0.822,0-1.644-0.411-2.301-1.396c0.082-0.822,0.082-1.644,0.082-2.547c0-5.012-1.067-11.009-2.464-14.952L247.668,32.533z"/>
</g>
<line fill="none" stroke="#6A3906" stroke-miterlimit="10" x1="0" y1="96.894" x2="280.413" y2="96.894"/>
<g>
	<path fill="#66391B" d="M24.839,141.634c-0.469-0.205-0.557-0.352-0.557-0.997c0-1.612,0.117-3.37,0.146-3.84
		c0.029-0.439,0.117-0.762,0.352-0.762c0.264,0,0.293,0.264,0.293,0.498c0,0.381,0.117,0.997,0.264,1.495
		c0.645,2.169,2.374,2.961,4.191,2.961c2.638,0,3.928-1.788,3.928-3.342c0-1.437-0.44-2.785-2.873-4.69l-1.349-1.055
		c-3.224-2.521-4.338-4.573-4.338-6.947c0-3.225,2.697-5.54,6.771-5.54c1.905,0,3.136,0.293,3.898,0.498
		c0.264,0.059,0.41,0.146,0.41,0.352c0,0.382-0.117,1.231-0.117,3.518c0,0.646-0.088,0.88-0.322,0.88
		c-0.205,0-0.293-0.176-0.293-0.527c0-0.265-0.146-1.173-0.762-1.935c-0.44-0.558-1.29-1.437-3.195-1.437
		c-2.169,0-3.488,1.26-3.488,3.019c0,1.349,0.674,2.375,3.107,4.222l0.821,0.615c3.547,2.667,4.807,4.689,4.807,7.475
		c0,1.7-0.645,3.723-2.755,5.101c-1.466,0.938-3.107,1.201-4.661,1.201C27.418,142.396,26.1,142.19,24.839,141.634z"/>
	<path fill="#66391B" d="M59.395,130.349c0-3.781,0.029-4.485-0.029-5.276c-0.059-0.879-0.293-1.114-1.114-1.349
		c-0.205-0.059-0.645-0.088-0.997-0.088c-0.293,0-0.439-0.088-0.439-0.264s0.176-0.234,0.557-0.234c1.378,0,3.107,0.059,3.869,0.059
		c0.645,0,2.375-0.059,3.312-0.059c0.381,0,0.557,0.059,0.557,0.234s-0.146,0.264-0.41,0.264c-0.293,0-0.439,0.029-0.762,0.088
		c-0.674,0.117-0.879,0.47-0.938,1.349c-0.059,0.791-0.059,1.495-0.059,5.276v3.488c0,3.635,0.704,5.041,1.964,6.038
		c1.143,0.908,2.375,0.996,3.254,0.996c1.114,0,2.433-0.322,3.458-1.318c1.437-1.349,1.495-3.518,1.495-6.067v-3.137
		c0-3.781-0.029-4.485-0.059-5.276c-0.059-0.85-0.264-1.114-1.084-1.349c-0.205-0.059-0.645-0.088-0.938-0.088
		c-0.293,0-0.44-0.088-0.44-0.264s0.176-0.234,0.528-0.234c1.319,0,3.048,0.059,3.078,0.059c0.293,0,2.022-0.059,3.019-0.059
		c0.352,0,0.528,0.059,0.528,0.234s-0.146,0.264-0.44,0.264c-0.293,0-0.439,0.029-0.762,0.088c-0.704,0.117-0.879,0.47-0.938,1.349
		c-0.029,0.791-0.059,1.495-0.059,5.276v2.667c0,2.785-0.293,5.716-2.462,7.504c-1.817,1.524-3.781,1.788-5.452,1.788
		c-1.348,0-4.016-0.059-5.892-1.7c-1.319-1.143-2.345-2.989-2.345-6.595V130.349z"/>
	<path fill="#66391B" d="M101.983,138.585c0.059,1.935,0.381,2.521,0.879,2.697c0.44,0.146,0.938,0.176,1.349,0.176
		c0.293,0,0.439,0.117,0.439,0.264c0,0.205-0.234,0.264-0.586,0.264c-1.67,0-2.873-0.088-3.341-0.088
		c-0.234,0-1.466,0.088-2.785,0.088c-0.352,0-0.586-0.029-0.586-0.264c0-0.146,0.176-0.264,0.411-0.264
		c0.352,0,0.821-0.029,1.172-0.117c0.674-0.176,0.762-0.851,0.792-3.02l0.234-14.773c0-0.498,0.176-0.85,0.44-0.85
		c0.322,0,0.674,0.381,1.114,0.82c0.322,0.322,4.191,4.279,7.943,7.943c1.759,1.729,5.188,5.247,5.569,5.599h0.117l-0.264-11.079
		c-0.029-1.524-0.264-1.965-0.879-2.199c-0.381-0.146-0.997-0.146-1.348-0.146c-0.323,0-0.411-0.117-0.411-0.264
		c0-0.205,0.264-0.234,0.645-0.234c1.348,0,2.726,0.059,3.283,0.059c0.293,0,1.261-0.059,2.521-0.059
		c0.352,0,0.586,0.029,0.586,0.234c0,0.146-0.147,0.264-0.44,0.264c-0.264,0-0.469,0-0.792,0.088
		c-0.703,0.205-0.909,0.646-0.938,2.052l-0.293,15.712c0,0.557-0.205,0.791-0.41,0.791c-0.44,0-0.792-0.264-1.056-0.527
		c-1.612-1.495-4.836-4.573-7.533-7.182c-2.814-2.696-5.54-5.716-6.038-6.155h-0.088L101.983,138.585z"/>
	<path fill="#66391B" d="M147.091,121.467l-4.368,0.117c-1.7,0.059-2.403,0.205-2.843,0.851c-0.293,0.439-0.44,0.791-0.499,1.025
		s-0.146,0.352-0.322,0.352c-0.206,0-0.264-0.146-0.264-0.469c0-0.469,0.557-3.137,0.616-3.371c0.088-0.381,0.176-0.557,0.352-0.557
		c0.235,0,0.528,0.293,1.261,0.352c0.85,0.088,1.963,0.146,2.931,0.146h11.607c0.938,0,1.583-0.088,2.022-0.146
		c0.439-0.088,0.675-0.146,0.792-0.146c0.205,0,0.234,0.176,0.234,0.615c0,0.616-0.088,2.639-0.088,3.4
		c-0.029,0.293-0.088,0.47-0.264,0.47c-0.235,0-0.294-0.147-0.323-0.587l-0.029-0.322c-0.059-0.762-0.85-1.583-3.458-1.642
		l-3.693-0.088v12.019c0,2.696,0,5.012,0.146,6.272c0.088,0.82,0.264,1.466,1.143,1.583c0.41,0.059,1.056,0.117,1.495,0.117
		c0.322,0,0.469,0.088,0.469,0.234c0,0.205-0.234,0.293-0.557,0.293c-1.935,0-3.781-0.088-4.602-0.088
		c-0.675,0-2.521,0.088-3.693,0.088c-0.382,0-0.587-0.088-0.587-0.293c0-0.146,0.117-0.234,0.47-0.234
		c0.439,0,0.791-0.059,1.055-0.117c0.586-0.117,0.763-0.763,0.851-1.612c0.146-1.231,0.146-3.547,0.146-6.243V121.467z"/>
	<path fill="#66391B" d="M181.002,130.349c0-3.781,0-4.485-0.029-5.276c-0.059-0.85-0.293-1.114-1.113-1.349
		c-0.205-0.059-0.646-0.088-1.026-0.088c-0.264,0-0.439-0.088-0.439-0.264s0.205-0.234,0.586-0.234c1.349,0,2.99,0.059,3.518,0.059
		c0.88,0,3.225-0.059,4.016-0.059c1.642,0,3.518,0.146,4.896,1.056c0.732,0.498,1.817,1.759,1.817,3.429
		c0,1.847-1.056,3.488-3.576,5.511c2.286,2.814,4.104,5.071,5.657,6.625c1.437,1.437,2.345,1.554,2.755,1.642
		c0.264,0.059,0.411,0.059,0.616,0.059s0.322,0.146,0.322,0.264c0,0.205-0.176,0.264-0.498,0.264h-2.463
		c-1.437,0-2.14-0.146-2.813-0.498c-1.114-0.558-2.081-1.729-3.518-3.664c-1.026-1.349-2.11-3.02-2.433-3.4
		c-0.146-0.146-0.294-0.176-0.47-0.176l-2.315-0.059c-0.117,0-0.205,0.059-0.205,0.205v0.352c0,2.315,0.029,4.25,0.146,5.306
		c0.088,0.732,0.205,1.202,0.997,1.319c0.381,0.059,0.938,0.088,1.26,0.088c0.205,0,0.322,0.146,0.322,0.264
		c0,0.176-0.205,0.264-0.527,0.264c-1.495,0-3.635-0.088-4.016-0.088c-0.498,0-2.14,0.088-3.166,0.088
		c-0.322,0-0.498-0.088-0.498-0.264c0-0.117,0.088-0.264,0.41-0.264c0.381,0,0.675-0.029,0.909-0.088
		c0.527-0.117,0.674-0.587,0.762-1.319c0.117-1.056,0.117-3.02,0.117-5.306V130.349z M184.286,132.283
		c0,0.264,0.059,0.352,0.234,0.439c0.557,0.176,1.319,0.234,1.964,0.234c1.026,0,1.378-0.088,1.817-0.41
		c0.792-0.557,1.671-1.642,1.671-3.693c0-3.518-2.403-4.426-3.928-4.426c-0.645,0-1.261,0.029-1.524,0.088
		c-0.176,0.059-0.234,0.146-0.234,0.352V132.283z"/>
	<path fill="#66391B" d="M218.695,130.349c0-3.781,0-4.485-0.029-5.276c-0.059-0.85-0.293-1.114-1.113-1.349
		c-0.205-0.059-0.646-0.088-1.026-0.088c-0.264,0-0.439-0.088-0.439-0.264s0.205-0.234,0.586-0.234c1.349,0,2.99,0.059,3.723,0.059
		c0.821,0,6.537,0.029,7.035,0c0.469-0.029,0.879-0.117,1.084-0.146c0.147-0.029,0.294-0.117,0.411-0.117
		c0.146,0,0.176,0.117,0.176,0.234c0,0.176-0.146,0.469-0.205,1.612c-0.029,0.264-0.088,1.349-0.146,1.642
		c-0.029,0.117-0.088,0.41-0.294,0.41c-0.176,0-0.205-0.117-0.205-0.322c0-0.176-0.029-0.616-0.176-0.909
		c-0.205-0.439-0.41-0.791-1.7-0.908c-0.439-0.059-3.518-0.117-4.045-0.117c-0.117,0-0.176,0.088-0.176,0.234v6.155
		c0,0.146,0.029,0.264,0.176,0.264c0.586,0,3.928,0,4.515-0.059c0.615-0.059,0.967-0.146,1.23-0.381
		c0.205-0.176,0.293-0.322,0.41-0.322c0.118,0,0.206,0.117,0.206,0.264s-0.059,0.557-0.206,1.817
		c-0.059,0.498-0.117,1.495-0.117,1.671c0,0.205-0.029,0.557-0.264,0.557c-0.176,0-0.234-0.088-0.234-0.205
		c-0.029-0.264-0.029-0.586-0.088-0.908c-0.146-0.499-0.469-0.88-1.437-0.968c-0.469-0.059-3.399-0.117-4.045-0.117
		c-0.117,0-0.146,0.117-0.146,0.264v1.993c0,0.851-0.029,2.961,0,3.693c0.059,1.7,0.851,2.081,3.488,2.081
		c0.674,0,1.759-0.029,2.433-0.322c0.646-0.293,0.938-0.82,1.114-1.847c0.059-0.264,0.117-0.381,0.293-0.381
		c0.205,0,0.234,0.322,0.234,0.586c0,0.558-0.205,2.257-0.352,2.756c-0.176,0.645-0.41,0.645-1.378,0.645
		c-1.935,0-3.488-0.029-4.748-0.088c-1.261-0.029-2.229-0.059-2.99-0.059c-0.293,0-0.85,0.029-1.466,0.029
		c-0.615,0.029-1.26,0.059-1.788,0.059c-0.322,0-0.498-0.088-0.498-0.264c0-0.117,0.088-0.264,0.41-0.264
		c0.382,0,0.675-0.029,0.909-0.088c0.527-0.117,0.674-0.587,0.762-1.319c0.117-1.056,0.117-3.02,0.117-5.306V130.349z"/>
	<path fill="#66391B" d="M253.164,130.349c0-3.781,0-4.485-0.029-5.276c-0.059-0.85-0.293-1.114-1.113-1.349
		c-0.205-0.059-0.646-0.088-1.026-0.088c-0.264,0-0.439-0.088-0.439-0.264s0.205-0.234,0.586-0.234c1.349,0,2.99,0.059,3.723,0.059
		c0.821,0,6.537,0.029,7.035,0c0.469-0.029,0.879-0.117,1.084-0.146c0.147-0.029,0.294-0.117,0.411-0.117
		c0.146,0,0.176,0.117,0.176,0.234c0,0.176-0.146,0.469-0.205,1.612c-0.029,0.264-0.088,1.349-0.146,1.642
		c-0.029,0.117-0.088,0.41-0.294,0.41c-0.176,0-0.205-0.117-0.205-0.322c0-0.176-0.029-0.616-0.176-0.909
		c-0.205-0.439-0.41-0.791-1.7-0.908c-0.439-0.059-3.518-0.117-4.045-0.117c-0.117,0-0.176,0.088-0.176,0.234v6.155
		c0,0.146,0.029,0.264,0.176,0.264c0.586,0,3.928,0,4.515-0.059c0.615-0.059,0.967-0.146,1.23-0.381
		c0.205-0.176,0.293-0.322,0.41-0.322c0.118,0,0.206,0.117,0.206,0.264s-0.059,0.557-0.206,1.817
		c-0.059,0.498-0.117,1.495-0.117,1.671c0,0.205-0.029,0.557-0.264,0.557c-0.176,0-0.234-0.088-0.234-0.205
		c-0.029-0.264-0.029-0.586-0.088-0.908c-0.146-0.499-0.469-0.88-1.437-0.968c-0.469-0.059-3.399-0.117-4.045-0.117
		c-0.117,0-0.146,0.117-0.146,0.264v1.993c0,0.851-0.029,2.961,0,3.693c0.059,1.7,0.851,2.081,3.488,2.081
		c0.674,0,1.759-0.029,2.433-0.322c0.646-0.293,0.938-0.82,1.114-1.847c0.059-0.264,0.117-0.381,0.293-0.381
		c0.205,0,0.234,0.322,0.234,0.586c0,0.558-0.205,2.257-0.352,2.756c-0.176,0.645-0.41,0.645-1.378,0.645
		c-1.935,0-3.488-0.029-4.748-0.088c-1.261-0.029-2.229-0.059-2.99-0.059c-0.293,0-0.85,0.029-1.466,0.029
		c-0.615,0.029-1.26,0.059-1.788,0.059c-0.322,0-0.498-0.088-0.498-0.264c0-0.117,0.088-0.264,0.41-0.264
		c0.382,0,0.675-0.029,0.909-0.088c0.527-0.117,0.674-0.587,0.762-1.319c0.117-1.056,0.117-3.02,0.117-5.306V130.349z"/>
</g>
</svg>
