<?xml version="1.0" encoding="utf-8"?>
<!-- Generator: Adobe Illustrator 16.0.0, SVG Export Plug-In . SVG Version: 6.00 Build 0)  -->
<!DOCTYPE svg PUBLIC "-//W3C//DTD SVG 1.1//EN" "http://www.w3.org/Graphics/SVG/1.1/DTD/svg11.dtd">
<svg version="1.1" id="レイヤー_1" xmlns="http://www.w3.org/2000/svg" xmlns:xlink="http://www.w3.org/1999/xlink" x="0px"
	 y="0px" width="359.599px" height="262.25px" viewBox="120.008 268.739 359.599 262.25"
	 enable-background="new 120.008 268.739 359.599 262.25" xml:space="preserve">
<g>
	<polygon fill="#FFE207" points="285.76,285.866 216.185,359.208 285.76,428.785 	"/>
	<polygon fill="#FFE207" points="138.889,440.687 268.363,440.687 201.92,374.244 	"/>
	<polygon fill="#FFE207" points="315.042,285.866 315.042,382.609 362.138,335.513 	"/>
	<polygon fill="#FFE207" points="461.912,440.687 376.404,350.549 315.042,411.911 315.042,440.687 	"/>
	<polygon fill="#8FE6E4" points="300.401,268.739 285.76,285.866 285.76,411.892 315.042,382.609 315.042,285.866 	"/>
	<polygon fill="#FFFFFF" points="362.138,335.513 315.042,382.609 285.76,411.892 285.76,428.785 216.185,359.208 201.92,374.244 
		268.363,440.687 285.76,440.687 315.042,440.687 315.042,411.911 376.404,350.549 	"/>
</g>
<g>
	<rect x="247.78" y="461.167" width="10.828" height="53.85"/>
	<path d="M349.505,460.164c-15.146,0-27.426,12.279-27.426,27.426c0,15.148,12.279,27.428,27.426,27.428
		c15.148,0,27.428-12.279,27.428-27.428C376.933,472.443,364.654,460.164,349.505,460.164z M349.505,504.117
		c-9.127,0-16.523-7.398-16.523-16.527c0-9.127,7.396-16.525,16.523-16.525c9.129,0,16.527,7.398,16.527,16.525
		C366.033,496.718,358.634,504.117,349.505,504.117z"/>
	<path d="M173.858,464.015c0-1.566-1.282-2.848-2.849-2.848h-51.001v7.98c0,1.564,1.282,2.848,2.848,2.848h18.663v43.021h7.979
		c1.567,0,2.849-1.279,2.849-2.85v-40.172h21.512L173.858,464.015L173.858,464.015z"/>
	<path d="M229.607,502.568l-5.121-9.973l-16.934-31.26h-7.576l-16.524,31.26l-4.997,9.973l-6.24,12.447h7.493
		c1.566,0,3.437-1.139,4.157-2.527l5.129-9.92h29.539l5.13,9.92c0.72,1.391,2.59,2.527,4.157,2.527H236L229.607,502.568z
		 M194.151,492.597l9.613-18.59l9.613,18.59H194.151z"/>
	<path d="M304.862,480.255l-14.053-16.895c-0.999-1.205-3.098-2.193-4.665-2.193h-11.643l21.354,25.32v28.527h10.826v-29.723
		C306.683,483.728,305.865,481.46,304.862,480.255z"/>
	<path d="M407.968,463.062c0-1.566-1.281-2.85-2.85-2.85h-7.979v44.734l-18.387,18.385l7.656,7.658l21.498-21.5l-0.162-0.16h0.223
		V463.062L407.968,463.062z"/>
	<path d="M477.083,460.636h-7.875v13.326v17.773v0.062h-0.201c0,0.021,0.004,0.045,0.004,0.068c0,7.756-6.645,13.256-15.803,13.256
		c-9.16,0-15.803-5.5-15.803-13.256v-17.775v-10.801c0-1.389-1.137-2.523-2.523-2.523h-7.875v31.102
		c0,6.211,2.666,11.867,7.02,16.094c4.787,4.648,11.611,7.562,19.182,7.562c7.637,0,14.523-2.969,19.316-7.691h0.064
		c4.352-4.227,7.018-9.885,7.018-16.096v-28.576C479.607,461.771,478.472,460.636,477.083,460.636z"/>
</g>
</svg>
