<?xml version="1.0" encoding="utf-8"?>
<!-- Generator: Adobe Illustrator 16.0.0, SVG Export Plug-In . SVG Version: 6.00 Build 0)  -->
<!DOCTYPE svg PUBLIC "-//W3C//DTD SVG 1.1//EN" "http://www.w3.org/Graphics/SVG/1.1/DTD/svg11.dtd">
<svg version="1.1" id="レイヤー_1" xmlns="http://www.w3.org/2000/svg" xmlns:xlink="http://www.w3.org/1999/xlink" x="0px"
	 y="0px" width="397.984px" height="270.032px" viewBox="0 0 397.984 270.032" enable-background="new 0 0 397.984 270.032"
	 xml:space="preserve">
<g>
	<polygon fill="#FFE207" points="191.944,17.127 122.369,90.468 191.944,160.045 	"/>
	<polygon fill="#FFE207" points="45.074,171.947 174.547,171.947 108.104,105.505 	"/>
	<polygon fill="#FFE207" points="221.227,17.127 221.227,113.87 268.323,66.773 	"/>
	<polygon fill="#FFE207" points="368.097,171.947 282.588,81.81 221.227,143.171 221.227,171.947 	"/>
	<polygon fill="#8FE6E4" points="206.586,0 191.944,17.127 191.944,143.152 221.227,113.87 221.227,17.127 	"/>
	<polygon fill="#FFFFFF" points="268.323,66.773 221.227,113.87 191.944,143.152 191.944,160.045 122.369,90.468 108.104,105.505 
		174.547,171.947 191.944,171.947 221.227,171.947 221.227,143.171 282.588,81.81 	"/>
</g>
<g>
	<rect x="141.411" y="192.757" fill="#3F4B3E" width="11.983" height="59.597"/>
	<path fill="#3F4B3E" d="M253.996,191.645c-16.765,0-30.354,13.59-30.354,30.354s13.59,30.354,30.354,30.354
		s30.354-13.59,30.354-30.354S270.761,191.645,253.996,191.645z M253.996,240.29c-10.102,0-18.29-8.188-18.29-18.291
		s8.188-18.29,18.29-18.29c10.103,0,18.291,8.188,18.291,18.29S264.099,240.29,253.996,240.29z"/>
	<path fill="#3F4B3E" d="M59.598,195.908c0-1.734-1.419-3.151-3.153-3.151H0v8.83c0,1.732,1.418,3.152,3.152,3.152h20.655v47.614
		h8.831c1.734,0,3.153-1.417,3.153-3.152v-44.462h23.808V195.908z"/>
	<path fill="#3F4B3E" d="M121.298,238.575l-5.667-11.035l-18.741-34.598h-8.385L70.217,227.54l-5.53,11.035l-6.906,13.778h8.293
		c1.734,0,3.804-1.26,4.601-2.8l5.677-10.979h32.691l5.678,10.979c0.796,1.54,2.866,2.8,4.601,2.8h9.053L121.298,238.575z
		 M82.058,227.54l10.639-20.573l10.64,20.573H82.058z"/>
	<path fill="#3F4B3E" d="M204.586,213.882l-15.552-18.697c-1.105-1.335-3.429-2.428-5.163-2.428h-12.885l23.634,28.022v31.574
		h11.983v-32.896C206.603,217.725,205.695,215.215,204.586,213.882z"/>
	<path fill="#3F4B3E" d="M318.699,194.854c0-1.733-1.419-3.152-3.153-3.152h-8.83v49.508l-20.35,20.349l8.474,8.475l23.792-23.794
		l-0.178-0.178h0.245V194.854z"/>
	<path fill="#3F4B3E" d="M395.191,192.168h-8.715v14.748v19.671v0.07h-0.223c0,0.025,0.003,0.05,0.003,0.075
		c0,8.584-7.353,14.673-17.489,14.673c-10.138,0-17.489-6.089-17.489-14.673V207.06v-11.954c0-1.536-1.258-2.792-2.793-2.792h-8.716
		v34.419c0,6.874,2.952,13.136,7.768,17.812c5.299,5.145,12.854,8.368,21.23,8.368c8.452,0,16.072-3.284,21.378-8.513h0.071
		c4.815-4.676,7.768-10.938,7.768-17.813v-31.626C397.984,193.425,396.728,192.168,395.191,192.168z"/>
</g>
</svg>
